<svg width="33" height="38" viewBox="0 0 33 38" fill="none" xmlns="http://www.w3.org/2000/svg">
<path d="M32.3063 26.2361C32.1637 26.0665 32.0238 25.8968 31.8864 25.7331C29.9973 23.476 28.8545 22.1138 28.8545 15.7242C28.8545 12.4162 28.0534 9.70187 26.4743 7.66616C25.31 6.16228 23.7361 5.02143 21.6616 4.1783C21.6349 4.16363 21.611 4.14439 21.5912 4.12147C20.845 1.65317 18.8031 0 16.5002 0C14.1973 0 12.1563 1.65317 11.4101 4.11893C11.3902 4.141 11.3667 4.15964 11.3406 4.17406C6.49951 6.14277 4.14681 9.91987 4.14681 15.7217C4.14681 22.1138 3.00566 23.476 1.11491 25.7306C0.977525 25.8943 0.837565 26.0605 0.695029 26.2336C0.32684 26.6722 0.0935627 27.2058 0.0228033 27.7714C-0.0479561 28.3369 0.0467649 28.9106 0.295757 29.4246C0.825544 30.5272 1.95467 31.2117 3.2435 31.2117H29.7664C31.0492 31.2117 32.1706 30.5281 32.7021 29.4305C32.9522 28.9164 33.0478 28.3422 32.9776 27.7761C32.9075 27.2099 32.6745 26.6755 32.3063 26.2361ZM16.5002 38C17.741 37.999 18.9584 37.6663 20.0232 37.0371C21.0881 36.408 21.9607 35.5059 22.5485 34.4265C22.5762 34.3747 22.5899 34.3168 22.5883 34.2583C22.5866 34.1998 22.5696 34.1427 22.539 34.0926C22.5085 34.0425 22.4653 34.0011 22.4137 33.9723C22.3621 33.9436 22.3038 33.9285 22.2446 33.9286H10.7576C10.6982 33.9284 10.6399 33.9433 10.5882 33.972C10.5365 34.0007 10.4932 34.0421 10.4625 34.0923C10.4318 34.1424 10.4147 34.1995 10.413 34.2581C10.4113 34.3167 10.425 34.3747 10.4527 34.4265C11.0405 35.5058 11.913 36.4078 12.9777 37.0369C14.0424 37.6661 15.2596 37.9989 16.5002 38Z" fill="#F8F8F8"/>
</svg>
