<svg width="35" height="35" viewBox="0 0 35 35" fill="none" xmlns="http://www.w3.org/2000/svg">
<path d="M10.4971 28C8.57264 28 7.01557 29.575 7.01557 31.5C7.01557 33.425 8.57264 35 10.4971 35C12.4216 35 13.9961 33.425 13.9961 31.5C13.9961 29.575 12.4216 28 10.4971 28ZM0 1.75C0 2.7125 0.787283 3.5 1.74952 3.5H3.49904L9.7973 16.7825L7.43545 21.0525C6.1583 23.3975 7.83784 26.25 10.4971 26.25H29.7418C30.704 26.25 31.4913 25.4625 31.4913 24.5C31.4913 23.5375 30.704 22.75 29.7418 22.75H10.4971L12.4216 19.25H25.4555C26.7676 19.25 27.9223 18.5325 28.5171 17.4475L34.7804 6.09C34.9279 5.82475 35.0035 5.52558 34.9999 5.2221C34.9962 4.91862 34.9134 4.62135 34.7597 4.35971C34.6059 4.09807 34.3865 3.88112 34.1232 3.73033C33.8599 3.57955 33.5618 3.50015 33.2583 3.5H7.36547L6.19329 0.997502C6.05269 0.698788 5.82992 0.446323 5.55106 0.269665C5.2722 0.0930081 4.94881 -0.000530006 4.61873 2.25898e-06H1.74952C0.787283 2.25898e-06 0 0.787502 0 1.75ZM27.9923 28C26.0678 28 24.5108 29.575 24.5108 31.5C24.5108 33.425 26.0678 35 27.9923 35C29.9168 35 31.4913 33.425 31.4913 31.5C31.4913 29.575 29.9168 28 27.9923 28Z" fill="#F8F8F8"/>
</svg>
