<svg width="55" height="55" viewBox="0 0 55 55" fill="none" xmlns="http://www.w3.org/2000/svg">
<path d="M27.5 35.4897L35.0156 41.1772C35.5572 41.5383 36.0989 41.55 36.6406 41.2124C37.1823 40.8747 37.3402 40.389 37.1145 39.7553L34.2708 30.3438L41.651 25.0626C42.1927 24.6563 42.3507 24.1481 42.125 23.5378C41.8993 22.9275 41.4704 22.6233 40.8385 22.6251H31.8333L28.7864 12.7397C28.5607 12.1077 28.1319 11.7917 27.5 11.7917C26.868 11.7917 26.4392 12.1077 26.2135 12.7397L23.1666 22.6251H14.1614C13.5295 22.6251 13.1007 22.9302 12.875 23.5405C12.6493 24.1508 12.8073 24.6581 13.3489 25.0626L20.7291 30.3438L17.8854 39.7553C17.6597 40.3872 17.8177 40.8729 18.3593 41.2124C18.901 41.5518 19.4427 41.5401 19.9843 41.1772L27.5 35.4897ZM27.5 54.5834C23.7534 54.5834 20.2326 53.872 16.9375 52.4492C13.6423 51.0265 10.776 49.0972 8.3385 46.6615C5.901 44.224 3.97177 41.3577 2.55079 38.0626C1.12982 34.7674 0.418432 31.2466 0.416626 27.5001C0.416626 23.7536 1.12802 20.2327 2.55079 16.9376C3.97357 13.6424 5.90281 10.7761 8.3385 8.33862C10.776 5.90112 13.6423 3.97189 16.9375 2.55092C20.2326 1.12994 23.7534 0.418554 27.5 0.416748C31.2465 0.416748 34.7673 1.12814 38.0625 2.55092C41.3576 3.97369 44.2239 5.90293 46.6614 8.33862C49.0989 10.7761 51.0291 13.6424 52.4518 16.9376C53.8746 20.2327 54.5851 23.7536 54.5833 27.5001C54.5833 31.2466 53.8719 34.7674 52.4491 38.0626C51.0263 41.3577 49.0971 44.224 46.6614 46.6615C44.2239 49.099 41.3576 51.0292 38.0625 52.452C34.7673 53.8747 31.2465 54.5852 27.5 54.5834Z" fill="#88CEEF"/>
</svg>
