<svg width="35" height="35" viewBox="0 0 35 35" fill="none" xmlns="http://www.w3.org/2000/svg">
<path d="M1.45845 14.5816C1.07165 14.5816 0.700685 14.428 0.427172 14.1545C0.153658 13.8809 0 13.51 0 13.1232V1.45845C0 1.07165 0.153658 0.700685 0.427172 0.427172C0.700685 0.153658 1.07165 0 1.45845 0H13.1261C13.5129 0 13.8839 0.153658 14.1574 0.427172C14.4309 0.700685 14.5845 1.07165 14.5845 1.45845V13.1232C14.5845 13.51 14.4309 13.8809 14.1574 14.1545C13.8839 14.428 13.5129 14.5816 13.1261 14.5816H1.45845ZM21.8768 14.5816C21.49 14.5816 21.1191 14.428 20.8455 14.1545C20.572 13.8809 20.4184 13.51 20.4184 13.1232V1.45845C20.4184 1.07165 20.572 0.700685 20.8455 0.427172C21.1191 0.153658 21.49 0 21.8768 0H33.5415C33.9284 0 34.2993 0.153658 34.5728 0.427172C34.8463 0.700685 35 1.07165 35 1.45845V13.1232C35 13.51 34.8463 13.8809 34.5728 14.1545C34.2993 14.428 33.9284 14.5816 33.5415 14.5816H21.8768ZM1.45845 35C1.07165 35 0.700685 34.8463 0.427172 34.5728C0.153658 34.2993 0 33.9284 0 33.5415V21.8739C0 21.4871 0.153658 21.1161 0.427172 20.8426C0.700685 20.5691 1.07165 20.4155 1.45845 20.4155H13.1261C13.5129 20.4155 13.8839 20.5691 14.1574 20.8426C14.4309 21.1161 14.5845 21.4871 14.5845 21.8739V33.5415C14.5845 33.9284 14.4309 34.2993 14.1574 34.5728C13.8839 34.8463 13.5129 35 13.1261 35H1.45845ZM21.8768 35C21.49 35 21.1191 34.8463 20.8455 34.5728C20.572 34.2993 20.4184 33.9284 20.4184 33.5415V21.8739C20.4184 21.4871 20.572 21.1161 20.8455 20.8426C21.1191 20.5691 21.49 20.4155 21.8768 20.4155H33.5415C33.9284 20.4155 34.2993 20.5691 34.5728 20.8426C34.8463 21.1161 35 21.4871 35 21.8739V33.5415C35 33.9284 34.8463 34.2993 34.5728 34.5728C34.2993 34.8463 33.9284 35 33.5415 35H21.8768Z" fill="#F8F8F8"/>
</svg>
