<svg width="60" height="50" viewBox="0 0 60 50" fill="none" xmlns="http://www.w3.org/2000/svg">
<path d="M35.25 15.625H42.42L51 31.25H42.15L34.5 17.0625M48.9 40.625H32.25L36.45 32.8125H51.81L52.59 34.25M28.5 40.625L25.2 33.9375L33.72 18.4375L38.22 26.75L30.75 40.625M54 6.25H30L24 0H6C2.67 0 0 2.78125 0 6.25V43.75C0 45.4076 0.632141 46.9973 1.75736 48.1694C2.88258 49.3415 4.4087 50 6 50H54C55.5913 50 57.1174 49.3415 58.2426 48.1694C59.3679 46.9973 60 45.4076 60 43.75V12.5C60 10.8424 59.3679 9.25268 58.2426 8.08058C57.1174 6.90848 55.5913 6.25 54 6.25Z" fill="#88CEEF"/>
</svg>
