<svg width="34" height="35" viewBox="0 0 34 35" fill="none" xmlns="http://www.w3.org/2000/svg">
<path d="M33.2383 17.7522L18.2383 0.922788C17.6067 0.212586 16.3933 0.212586 15.7617 0.922788L0.76168 17.7522C0.545774 17.9939 0.404055 18.2937 0.353754 18.6152C0.303453 18.9366 0.346739 19.266 0.478347 19.5631C0.745014 20.1706 1.34168 20.561 2.00001 20.561H5.33335V32.3416C5.33335 32.788 5.50894 33.216 5.8215 33.5317C6.13406 33.8473 6.55799 34.0246 7.00001 34.0246H12C12.442 34.0246 12.866 33.8473 13.1785 33.5317C13.4911 33.216 13.6667 32.788 13.6667 32.3416V25.6099H20.3333V32.3416C20.3333 32.788 20.5089 33.216 20.8215 33.5317C21.1341 33.8473 21.558 34.0246 22 34.0246H27C27.442 34.0246 27.866 33.8473 28.1785 33.5317C28.4911 33.216 28.6667 32.788 28.6667 32.3416V20.561H32C32.3228 20.5624 32.639 20.469 32.9101 20.292C33.1811 20.1151 33.3954 19.8623 33.5267 19.5646C33.6579 19.2668 33.7006 18.9369 33.6494 18.6151C33.5982 18.2933 33.4554 17.9935 33.2383 17.7522Z" fill="#F8F8F8"/>
</svg>
