<svg width="50" height="50" viewBox="0 0 50 50" fill="none" xmlns="http://www.w3.org/2000/svg">
<path d="M5.55556 50C4.02778 50 2.71945 49.4556 1.63056 48.3667C0.541671 47.2778 -0.00184714 45.9704 4.71609e-06 44.4444V5.55556C4.71609e-06 4.02778 0.544449 2.71945 1.63334 1.63056C2.72223 0.541671 4.02963 -0.00184714 5.55556 4.71609e-06H44.4444C45.9722 4.71609e-06 47.2806 0.544449 48.3694 1.63334C49.4583 2.72223 50.0018 4.02963 50 5.55556V44.4444C50 45.9722 49.4556 47.2806 48.3667 48.3694C47.2778 49.4583 45.9704 50.0018 44.4444 50H5.55556ZM8.33334 38.8889H41.6667L31.25 25L22.9167 36.1111L16.6667 27.7778L8.33334 38.8889Z" fill="#88CEEF"/>
</svg>
