<svg width="39" height="39" viewBox="0 0 39 39" fill="none" xmlns="http://www.w3.org/2000/svg">
<path d="M9.75 3.25H24.375C25.237 3.25 26.0636 3.59241 26.6731 4.2019C27.2826 4.8114 27.625 5.63805 27.625 6.5V9.75H24.375V6.5H9.75V32.5H24.375V29.25H27.625V32.5C27.625 33.3619 27.2826 34.1886 26.6731 34.7981C26.0636 35.4076 25.237 35.75 24.375 35.75H9.75C8.88805 35.75 8.0614 35.4076 7.4519 34.7981C6.84241 34.1886 6.5 33.3619 6.5 32.5V6.5C6.5 5.63805 6.84241 4.8114 7.4519 4.2019C8.0614 3.59241 8.88805 3.25 9.75 3.25Z" fill="#F8F8F8"/>
<path d="M26.1462 25.3337L28.4375 27.625L36.5625 19.5L28.4375 11.375L26.1462 13.6662L30.3387 17.875H14.625V21.125H30.3387L26.1462 25.3337Z" fill="#F8F8F8"/>
</svg>
