<svg width="40" height="41" viewBox="0 0 40 41" fill="none" xmlns="http://www.w3.org/2000/svg">
    <path fill-rule="evenodd" clip-rule="evenodd"
        d="M26.6666 15.1468C26.6666 16.9322 25.9642 18.6444 24.714 19.9069C23.4637 21.1693 21.768 21.8786 19.9999 21.8786C18.2318 21.8786 16.5361 21.1693 15.2859 19.9069C14.0356 18.6444 13.3333 16.9322 13.3333 15.1468C13.3333 13.3614 14.0356 11.6492 15.2859 10.3867C16.5361 9.12428 18.2318 8.41504 19.9999 8.41504C21.768 8.41504 23.4637 9.12428 24.714 10.3867C25.9642 11.6492 26.6666 13.3614 26.6666 15.1468V15.1468ZM23.3333 15.1468C23.3333 16.0395 22.9821 16.8956 22.3569 17.5268C21.7318 18.1581 20.884 18.5127 19.9999 18.5127C19.1159 18.5127 18.268 18.1581 17.6429 17.5268C17.0178 16.8956 16.6666 16.0395 16.6666 15.1468C16.6666 14.2541 17.0178 13.398 17.6429 12.7668C18.268 12.1355 19.1159 11.7809 19.9999 11.7809C20.884 11.7809 21.7318 12.1355 22.3569 12.7668C22.9821 13.398 23.3333 14.2541 23.3333 15.1468V15.1468Z"
        fill="#F8F8F8" />
    <path fill-rule="evenodd" clip-rule="evenodd"
        d="M20 1.68311C9.87496 1.68311 1.66663 9.9716 1.66663 20.1955C1.66663 30.4194 9.87496 38.7078 20 38.7078C30.125 38.7078 38.3333 30.4194 38.3333 20.1955C38.3333 9.9716 30.125 1.68311 20 1.68311ZM4.99996 20.1955C4.99996 23.7128 6.18829 26.9508 8.17996 29.5223C9.57868 27.6676 11.3831 26.1644 13.4523 25.1304C15.5216 24.0963 17.7995 23.5593 20.1083 23.5614C22.3872 23.5592 24.6365 24.0823 26.6848 25.0908C28.7332 26.0993 30.5266 27.5666 31.9283 29.381C33.3724 27.4685 34.3447 25.2363 34.7648 22.869C35.1849 20.5017 35.0407 18.0675 34.3441 15.7676C33.6476 13.4678 32.4187 11.3685 30.7591 9.64349C29.0995 7.91845 27.057 6.61726 24.8006 5.84756C22.5441 5.07787 20.1386 4.8618 17.7831 5.21724C15.4275 5.57268 13.1896 6.48941 11.2546 7.89157C9.31954 9.29373 7.74298 11.141 6.65534 13.2806C5.5677 15.4202 5.00026 17.7905 4.99996 20.1955V20.1955ZM20 35.342C16.5565 35.3472 13.2171 34.151 10.5466 31.9559C11.6215 30.4021 13.0522 29.1334 14.7169 28.2579C16.3817 27.3824 18.2313 26.9259 20.1083 26.9272C21.9619 26.9257 23.7891 27.3708 25.4382 28.2255C27.0872 29.0802 28.5106 30.3198 29.59 31.8414C26.8988 34.1079 23.5043 35.3469 20 35.342V35.342Z"
        fill="#F8F8F8" />
</svg>