<svg width="30" height="19" viewBox="0 0 30 19" fill="none" xmlns="http://www.w3.org/2000/svg">
    <path d="M6.64887 7.41966C6.32366 7.41966 6.01158 7.46192 5.70096 7.50045C5.80158 7.21211 5.90512 6.9188 6.07137 6.65533C6.23762 6.27254 6.49721 5.9407 6.75533 5.60638C6.97116 5.24472 7.35179 4.99988 7.63179 4.69042C7.92491 4.38966 8.3245 4.18956 8.64096 3.93975C8.95158 3.67876 9.35846 3.54826 9.68221 3.36433C10.0205 3.19903 10.3151 3.01634 10.6301 2.92934L11.4162 2.65343L12.1074 2.40859L11.4001 0L10.5295 0.178966C10.251 0.238622 9.91117 0.30822 9.52471 0.391489C9.1295 0.45363 8.70804 0.623898 8.23846 0.779251C7.77471 0.955732 7.23804 1.07504 6.73929 1.35841C6.23762 1.62934 5.65866 1.85554 5.14825 2.21844C4.65387 2.59253 4.05741 2.91691 3.617 3.39291C3.13575 3.83784 2.66033 4.30514 2.29137 4.83707C1.86408 5.34415 1.57387 5.90093 1.26762 6.4515C0.99054 7.00207 0.767415 7.56507 0.585123 8.11192C0.239498 9.20809 0.0849147 10.2496 0.0251231 11.1407C-0.0244603 12.033 0.00470641 12.775 0.0659564 13.3119C0.0878314 13.5654 0.128665 13.8115 0.157832 13.9818L0.19429 14.1906L0.232206 14.1831C0.491587 15.2157 1.08869 16.1646 1.95444 16.92C2.8202 17.6755 3.91922 18.2066 5.12439 18.452C6.32955 18.6974 7.59161 18.647 8.76456 18.3066C9.93751 17.9662 10.9734 17.3498 11.7525 16.5287C12.5315 15.7075 13.0219 14.7152 13.1668 13.6665C13.3117 12.6177 13.1053 11.5555 12.5714 10.6026C12.0375 9.64965 11.1979 8.84501 10.1498 8.28175C9.10174 7.71848 7.88795 7.41959 6.64887 7.41966ZM22.6905 7.41966C22.3653 7.41966 22.0532 7.46192 21.7426 7.50045C21.8432 7.21211 21.9468 6.9188 22.113 6.65533C22.2793 6.27254 22.5389 5.9407 22.797 5.60638C23.0128 5.24472 23.3935 4.99988 23.6735 4.69042C23.9666 4.38966 24.3662 4.18956 24.6826 3.93975C24.9932 3.67876 25.4001 3.54826 25.7239 3.36433C26.0622 3.19903 26.3568 3.01634 26.6718 2.92934L27.4578 2.65343L28.1491 2.40859L27.4418 0L26.5712 0.178966C26.2926 0.238622 25.9528 0.30822 25.5664 0.391489C25.1712 0.45363 24.7497 0.623898 24.2801 0.779251C23.8178 0.956975 23.2797 1.07504 22.781 1.35965C22.2793 1.63059 21.7003 1.85678 21.1899 2.21968C20.6955 2.59377 20.0991 2.91815 19.6587 3.39291C19.1774 3.83784 18.702 4.30514 18.333 4.83707C17.9057 5.34415 17.6155 5.90093 17.3093 6.4515C17.0322 7.00207 16.8091 7.56507 16.6268 8.11192C16.2812 9.20809 16.1266 10.2496 16.0668 11.1407C16.0172 12.033 16.0464 12.775 16.1076 13.3119C16.1295 13.5654 16.1703 13.8115 16.1995 13.9818L16.236 14.1906L16.2739 14.1831C16.5333 15.2157 17.1304 16.1646 17.9961 16.92C18.8619 17.6755 19.9609 18.2066 21.1661 18.452C22.3712 18.6974 23.6333 18.647 24.8062 18.3066C25.9792 17.9662 27.0151 17.3498 27.7941 16.5287C28.5732 15.7075 29.0635 14.7152 29.2084 13.6665C29.3534 12.6177 29.1469 11.5555 28.613 10.6026C28.0791 9.64965 27.2396 8.84501 26.1915 8.28175C25.1434 7.71848 23.9296 7.41959 22.6905 7.41966Z" fill="black"/>
    </svg>
    